<svg xmlns="http://www.w3.org/2000/svg" viewBox="0 0 463.89 185.6"><defs><style>.cls-1,.cls-2{fill:#ff715d;}.cls-1{opacity:0.9;}</style></defs><g id="Capa_2" data-name="Capa 2"><g id="_2" data-name="2"><path class="cls-1" d="M244.63,125.79s60.27-58,20.46-104c0,0-49.59-55.73-89.51,11,0,0-76.81-62.07-92.35,28.15,0,0-6.15,38.75,49.64,75.26Z"/><path class="cls-2" d="M301.39,183.1s74-59,34-115c0,0-50-68-102,3,0,0-80-78-107,22,0,0-11,43,48,90Z"/><circle class="cls-2" cx="400.89" cy="53.6" r="11"/><circle class="cls-2" cx="449.39" cy="96.1" r="14.5"/><circle class="cls-2" cx="434.89" cy="133.6" r="7"/><circle class="cls-2" cx="402.89" cy="176.6" r="9"/><circle class="cls-2" cx="63" cy="53.1" r="11"/><circle class="cls-2" cx="14.5" cy="95.6" r="14.5"/><circle class="cls-2" cx="29" cy="133.1" r="7"/><circle class="cls-2" cx="61" cy="176.1" r="9"/></g></g></svg>